<svg width="13" height="13" viewBox="0 0 13 13" fill="none" xmlns="http://www.w3.org/2000/svg">
<path fill-rule="evenodd" clip-rule="evenodd" d="M1.75513 1.27124C2.87518 0.151194 4.76527 0.236339 5.54515 1.63375L5.97782 2.40904C6.4871 3.32159 6.27008 4.47297 5.52454 5.22762C5.51461 5.24122 5.46199 5.31785 5.45543 5.45172C5.44707 5.6226 5.50776 6.01779 6.12004 6.63007C6.73213 7.24216 7.12726 7.303 7.29821 7.29468C7.4322 7.28817 7.50888 7.23551 7.5225 7.22557C8.27715 6.48004 9.42853 6.26302 10.3411 6.77229L11.1164 7.20497C12.5138 7.98485 12.5989 9.87494 11.4789 10.995C10.8798 11.5941 10.0832 12.1264 9.14703 12.1619C7.75974 12.2145 5.45625 11.8562 3.17506 9.57506C0.893872 7.29387 0.535614 4.99038 0.588206 3.60309C0.623694 2.66696 1.15602 1.87035 1.75513 1.27124ZM4.67193 2.12108C4.27259 1.40552 3.19946 1.24113 2.46224 1.97835C1.94534 2.49524 1.60929 3.06579 1.58749 3.64097C1.54363 4.79787 1.82926 6.81504 3.88217 8.86795C5.93508 10.9209 7.95225 11.2065 9.10915 11.1626C9.68433 11.1408 10.2549 10.8048 10.7718 10.2879C11.509 9.55066 11.3446 8.47753 10.629 8.07819L9.85375 7.64551C9.37148 7.37636 8.69406 7.46817 8.21852 7.9437L8.21837 7.94385C8.17165 7.99053 7.87445 8.26784 7.3468 8.2935C6.80665 8.31978 6.15283 8.07708 5.41294 7.33718C4.6728 6.59704 4.43018 5.94304 4.45663 5.40282C4.48247 4.87514 4.75995 4.57807 4.80638 4.53164L4.8064 4.53162C5.28194 4.05607 5.37376 3.37865 5.10461 2.89637L4.67193 2.12108Z" fill="#B9BBBD"/>
</svg>
